<?xml version="1.0" encoding="UTF-8"?>
<svg xmlns="http://www.w3.org/2000/svg" height="512" width="512" class="segno">
<path d="M0 0h512v512H0z" fill="#fff"/>
<path d="M16 16v160h160V16H16m16 16h128v128H32V32m32 32v64h64V64H64m176-48v160h160V16H240m16 16h128v128H256V32m32 32v64h64V64h-64M16 240v160h160V240H16m16 16h128v128H32V256m32 32v64h64v-64H64M368 240h-32v32h32v-32m48 0v32h32v-32h-32m64 0v32h32v-32h-32m-80 48h-32v32h32v-32m-16 48h-32v32h32v-32m-48 16v32h32v-32h-32m96 0v32h32v-32h-32m-144 16h-32v32h32v-32m48 0v32h32v-32h-32m-32 48h-32v32h32v-32m48 0v32h32v-32h-32M64 64v64h64V64H64m176-32v64h64V32h-64m-176 0v32h32V32H64m208 0v32h32V32h-32m-208 96v32h32v-32H64m208 0v32h32v-32h-32M64 256v64h64v-64H64m-32 0v32h32v-32H32m208-16h32v-32h-32v32m96 0h32v-32h-32v32m-64 16h32v-32h-32v32m96 0h32v-32h-32v32m-176 48v32h32v-32h-32m208 0v32h32v-32h-32m-208 96v32h32v-32h-32m80-64h32v-32h-32v32m32 32h32v-32h-32v32m-64 32h32v-32h-32v32m96 0h32v-32h-32v32" fill="#000"/>
</svg>
